<svg id="Layer_1" data-name="Layer 1" xmlns="http://www.w3.org/2000/svg" viewBox="0 0 357.69 110.58"><defs><style>.cls-1,.cls-4{fill:#211915;}.cls-2,.cls-3{fill:none;}.cls-2,.cls-3,.cls-4{stroke:#211915;stroke-miterlimit:10;}.cls-2{stroke-width:2px;}.cls-4{stroke-width:0.75px;}</style></defs><title>Artboard 3</title><path class="cls-1" d="M38.49,33.36V48.13H61V33.36a6.92,6.92,0,0,1,1.43-4.75A4.8,4.8,0,0,1,66.19,27,5,5,0,0,1,70,28.6a6.78,6.78,0,0,1,1.45,4.76V74A6.82,6.82,0,0,1,70,78.75a5,5,0,0,1-3.8,1.58,4.75,4.75,0,0,1-3.76-1.6A7,7,0,0,1,61,74V56.63H38.49V74A6.78,6.78,0,0,1,37,78.75a5,5,0,0,1-3.8,1.58,4.75,4.75,0,0,1-3.76-1.6A7.06,7.06,0,0,1,28.05,74V33.36a7,7,0,0,1,1.39-4.75A4.76,4.76,0,0,1,33.21,27,5,5,0,0,1,37,28.6,6.78,6.78,0,0,1,38.49,33.36Z"/><path class="cls-1" d="M108.8,63.17H90a12.68,12.68,0,0,0,1.32,5.77,8.84,8.84,0,0,0,8.1,5,11.5,11.5,0,0,0,3.15-.41,10.65,10.65,0,0,0,2.76-1.26,21.35,21.35,0,0,0,2.46-1.85q1.13-1,2.91-2.67a3.18,3.18,0,0,1,2.11-.63,3.5,3.5,0,0,1,2.39.8,2.91,2.91,0,0,1,.92,2.29,6.23,6.23,0,0,1-1,3,12.16,12.16,0,0,1-3.08,3.34,17.29,17.29,0,0,1-5.17,2.65,22,22,0,0,1-7.15,1.06q-9.24,0-14.38-5.27T80.22,60.75a23.91,23.91,0,0,1,1.26-7.89,17.52,17.52,0,0,1,3.7-6.25,16,16,0,0,1,6-4A21.58,21.58,0,0,1,99,41.24a18.71,18.71,0,0,1,9.65,2.37,15.69,15.69,0,0,1,6,6.13,16.23,16.23,0,0,1,2,7.67c0,2.41-.69,4-2.07,4.69A12.89,12.89,0,0,1,108.8,63.17ZM90,57.72h17.4c-.24-3.28-1.12-5.73-2.66-7.36a7.92,7.92,0,0,0-6.06-2.44,7.69,7.69,0,0,0-5.89,2.47Q90.53,52.88,90,57.72Z"/><path class="cls-1" d="M149.05,74.92A30.11,30.11,0,0,1,142.32,79,18.86,18.86,0,0,1,135,80.33a13.86,13.86,0,0,1-6.49-1.46,10.72,10.72,0,0,1-4.31-4,10.36,10.36,0,0,1-1.51-5.42,9.66,9.66,0,0,1,2.5-6.71,12.47,12.47,0,0,1,6.85-3.73c.61-.14,2.12-.46,4.54-1s4.48-.94,6.2-1.35,3.6-.91,5.61-1.5a10,10,0,0,0-1.53-5.57q-1.35-1.77-5.61-1.77a11.69,11.69,0,0,0-5.5,1A8.9,8.9,0,0,0,132.62,52c-.88,1.36-1.5,2.26-1.86,2.69a3.05,3.05,0,0,1-2.34.65,4.11,4.11,0,0,1-2.8-1,3.4,3.4,0,0,1-1.18-2.66,8.08,8.08,0,0,1,1.8-4.92,12.82,12.82,0,0,1,5.59-3.94,25.19,25.19,0,0,1,9.45-1.54,26.68,26.68,0,0,1,9.95,1.49,9.25,9.25,0,0,1,5.12,4.73A20.62,20.62,0,0,1,157.84,56c0,2.25,0,4.16,0,5.73s0,3.31-.06,5.24a19.25,19.25,0,0,0,.9,5.64,17.69,17.69,0,0,1,.9,3.78,3.57,3.57,0,0,1-1.39,2.69A4.66,4.66,0,0,1,155,80.33a4.24,4.24,0,0,1-2.92-1.39A20.72,20.72,0,0,1,149.05,74.92ZM148.42,61a48.47,48.47,0,0,1-6.13,1.63c-2.69.58-4.54,1-5.58,1.27a7.67,7.67,0,0,0-3,1.58,4,4,0,0,0-1.4,3.29A4.88,4.88,0,0,0,134,72.51,6.1,6.1,0,0,0,138.33,74a11.3,11.3,0,0,0,5.26-1.25,8.36,8.36,0,0,0,3.53-3.22q1.31-2.17,1.3-7.17Z"/><path class="cls-1" d="M167.58,74.49V32.87a6.5,6.5,0,0,1,1.28-4.36A4.35,4.35,0,0,1,172.33,27a4.54,4.54,0,0,1,3.51,1.46,6.29,6.29,0,0,1,1.34,4.38V74.49a6.24,6.24,0,0,1-1.35,4.38,4.58,4.58,0,0,1-3.5,1.46,4.33,4.33,0,0,1-3.43-1.51A6.39,6.39,0,0,1,167.58,74.49Z"/><path class="cls-1" d="M187.62,42.15h1.06V36.38c0-1.54,0-2.76.12-3.63a5.41,5.41,0,0,1,.68-2.27,4.37,4.37,0,0,1,1.62-1.6,4.59,4.59,0,0,1,2.36-.62,4.75,4.75,0,0,1,3.3,1.37A4.09,4.09,0,0,1,198,31.87a19.91,19.91,0,0,1,.26,3.74v6.54h3.52a4.48,4.48,0,0,1,3.11,1A3.19,3.19,0,0,1,206,45.6a2.77,2.77,0,0,1-1.53,2.7,9.84,9.84,0,0,1-4.37.78h-1.8V66.72a29.9,29.9,0,0,0,.16,3.47,3.62,3.62,0,0,0,.84,2,2.92,2.92,0,0,0,2.24.75,11.86,11.86,0,0,0,2.28-.3,11.8,11.8,0,0,1,2.25-.3,2.89,2.89,0,0,1,2.09.94,3.12,3.12,0,0,1,.94,2.3,3.85,3.85,0,0,1-2.54,3.55,17.07,17.07,0,0,1-7.27,1.23c-3,0-5.28-.5-6.82-1.51a7,7,0,0,1-3-4.19,28.38,28.38,0,0,1-.72-7.13V49.08h-1.27a4.53,4.53,0,0,1-3.16-1,3.2,3.2,0,0,1-1.09-2.49,3.1,3.1,0,0,1,1.14-2.48A5,5,0,0,1,187.62,42.15Z"/><path class="cls-1" d="M222,32.87V47.11a20.41,20.41,0,0,1,3.57-3.34,12.82,12.82,0,0,1,3.85-1.85,16.05,16.05,0,0,1,4.53-.61,13.33,13.33,0,0,1,6.49,1.54,11.09,11.09,0,0,1,4.45,4.5,11.32,11.32,0,0,1,1.37,3.85,31,31,0,0,1,.35,4.91V74.49a6.33,6.33,0,0,1-1.32,4.36,4.46,4.46,0,0,1-3.5,1.48q-4.74,0-4.74-5.84V58.29a14.83,14.83,0,0,0-1.38-7.09q-1.37-2.48-5.2-2.48a7.81,7.81,0,0,0-4.62,1.46,8.87,8.87,0,0,0-3.08,4A25.8,25.8,0,0,0,222,61.8V74.49a6.54,6.54,0,0,1-1.28,4.35,4.48,4.48,0,0,1-3.57,1.49q-4.76,0-4.75-5.84V32.87a6.6,6.6,0,0,1,1.25-4.38,4.36,4.36,0,0,1,3.5-1.46,4.48,4.48,0,0,1,3.57,1.48A6.5,6.5,0,0,1,222,32.87Z"/><path class="cls-1" d="M263.63,60.4V79.45h-5.91V29h13.85q8.08,0,12.54,3.93t4.44,11.11a15.28,15.28,0,0,1-4.94,11.75q-4.94,4.56-13.34,4.57Zm0-26V55.05h6.19c4.07,0,7.19-.93,9.33-2.79a9.93,9.93,0,0,0,3.22-7.9q0-10-11.82-10Z"/><path class="cls-1" d="M305.46,79.45H299.7v-36h5.76Z"/><path class="cls-1" d="M339.25,77.8a18.78,18.78,0,0,1-9.84,2.49q-7.71,0-12.43-5c-3.15-3.34-4.73-7.66-4.73-13q0-8.88,5.1-14.29T331,42.61a19,19,0,0,1,8.37,1.75v5.91a14.69,14.69,0,0,0-8.58-2.81,11.6,11.6,0,0,0-9.05,3.95q-3.54,4-3.53,10.39t3.32,10a11.46,11.46,0,0,0,8.91,3.65,14.44,14.44,0,0,0,8.86-3.13Z"/><path class="cls-2" d="M289.16,32.26a21.29,21.29,0,0,1,3.38-3,17.63,17.63,0,0,1,9.93-3.76,16.26,16.26,0,0,1,10.79,4.08l2.93,2.71a16.45,16.45,0,0,1-3,2.88,17.41,17.41,0,0,1-10.53,3.22A18.37,18.37,0,0,1,292,34.66Z"/><path class="cls-3" d="M302.5,25.82c-3.62,0-6.77,3.34-6.32,6.86.41,3.17,3.6,5.36,6.7,5.2a6.33,6.33,0,0,0,6-5.17C309.34,29.22,306.19,25.8,302.5,25.82Z"/><circle class="cls-4" cx="302.33" cy="31.85" r="2.86"/></svg>